<svg width="808" height="547" viewBox="0 0 808 547" fill="none" xmlns="http://www.w3.org/2000/svg">
<path d="M407.5 547C628.69 547 808 541.627 808 535C808 528.373 628.69 523 407.5 523C186.31 523 7 528.373 7 535C7 541.627 186.31 547 407.5 547Z" fill="#E6E6E6"/>
<path d="M59.8534 122.42C87.3502 110.724 121.598 118.134 155.044 123.277C155.356 117.049 159.128 109.469 155.176 105.124C150.375 99.8455 150.817 94.299 153.706 88.7205C161.094 74.4555 150.509 59.2768 139.822 46.6558C137.413 43.8176 134.369 41.5875 130.936 40.1467C127.504 38.706 123.78 38.0952 120.067 38.364L100.269 39.7781C95.4516 40.1222 90.854 41.9294 87.0917 44.9579C83.3293 47.9863 80.5816 52.0915 79.2161 56.7243C74.4889 63.1535 71.9587 69.5648 73.5517 75.9428C66.4711 80.7817 65.2814 86.6226 68.4632 93.2072C71.1612 97.3532 71.1325 101.389 68.3405 105.313C64.6737 110.316 61.8653 115.894 60.0304 121.819L59.8534 122.42Z" fill="#2F2E41"/>
<path d="M713.29 476.963H152.872C147.889 476.963 143.109 474.983 139.585 471.459C136.061 467.935 134.081 463.156 134.081 458.172C337.232 434.562 536.566 434.562 732.081 458.172C732.081 463.156 730.101 467.935 726.577 471.459C723.053 474.983 718.274 476.963 713.29 476.963Z" fill="#2F2E41"/>
<path d="M732.081 459.277L134.081 458.172L203.387 341.556L203.719 341.004V83.9964C203.719 80.8769 204.333 77.7878 205.526 74.9057C206.72 72.0236 208.47 69.4049 210.676 67.1991C212.882 64.9932 215.5 63.2435 218.382 62.0498C221.264 60.8562 224.353 60.2419 227.473 60.2422H635.373C638.493 60.2419 641.582 60.8562 644.464 62.0498C647.346 63.2435 649.965 64.9932 652.17 67.1991C654.376 69.4049 656.126 72.0236 657.32 74.9057C658.513 77.7878 659.128 80.8769 659.127 83.9964V342.772L732.081 459.277Z" fill="#3F3D56"/>
<path d="M226.931 76.8225C224.88 76.8248 222.913 77.6408 221.463 79.0913C220.012 80.5419 219.196 82.5086 219.194 84.56V318.896C219.196 320.948 220.012 322.915 221.463 324.365C222.913 325.816 224.88 326.632 226.931 326.634H639.231C641.282 326.631 643.249 325.815 644.699 324.365C646.15 322.914 646.966 320.948 646.968 318.896V84.56C646.966 82.5086 646.15 80.542 644.699 79.0914C643.249 77.6409 641.282 76.8249 639.231 76.8225H226.931Z" fill="white"/>
<path d="M228.659 357.584C228.025 357.585 227.405 357.767 226.871 358.109C226.337 358.451 225.912 358.939 225.646 359.514L204.291 405.939C204.058 406.445 203.957 407 203.995 407.555C204.034 408.11 204.211 408.646 204.511 409.114C204.811 409.582 205.224 409.968 205.712 410.235C206.2 410.502 206.747 410.641 207.303 410.641H656.395C656.96 410.641 657.516 410.497 658.01 410.222C658.504 409.946 658.919 409.549 659.216 409.069C659.513 408.588 659.682 408.039 659.708 407.474C659.733 406.91 659.613 406.348 659.36 405.842L636.148 359.417C635.874 358.865 635.451 358.401 634.927 358.077C634.403 357.753 633.799 357.582 633.183 357.584H228.659Z" fill="#2F2E41"/>
<path d="M431.423 72.9537C434.17 72.9537 436.397 70.7267 436.397 67.9796C436.397 65.2325 434.17 63.0055 431.423 63.0055C428.676 63.0055 426.449 65.2325 426.449 67.9796C426.449 70.7267 428.676 72.9537 431.423 72.9537Z" fill="white"/>
<path d="M387.281 419.484C386.552 419.485 385.844 419.726 385.265 420.169C384.686 420.613 384.27 421.234 384.079 421.938L378.723 441.834C378.59 442.326 378.573 442.841 378.671 443.341C378.77 443.84 378.983 444.31 379.292 444.714C379.602 445.118 380 445.445 380.457 445.67C380.913 445.896 381.415 446.013 381.924 446.013H483.798C484.327 446.013 484.848 445.887 485.318 445.644C485.788 445.402 486.193 445.051 486.499 444.62C486.806 444.189 487.005 443.692 487.08 443.168C487.155 442.645 487.104 442.111 486.931 441.612L480.044 421.715C479.818 421.064 479.395 420.499 478.833 420.099C478.272 419.7 477.6 419.485 476.91 419.484H387.281Z" fill="#2F2E41"/>
<path d="M659.127 337.135V341.556H203.387L203.73 341.004V337.135H659.127Z" fill="#2F2E41"/>
<path d="M646.416 154.75C689.149 154.75 723.791 120.108 723.791 77.3752C723.791 34.6421 689.149 0 646.416 0C603.683 0 569.04 34.6421 569.04 77.3752C569.04 120.108 603.683 154.75 646.416 154.75Z" fill="#FB6D6C"/>
<path d="M678.471 111.089H614.36C613.188 111.088 612.064 110.621 611.235 109.792C610.406 108.964 609.94 107.84 609.939 106.667V67.9797C609.94 66.8074 610.406 65.6835 611.235 64.8546C612.064 64.0257 613.188 63.5595 614.36 63.5582H678.471C679.643 63.5595 680.767 64.0257 681.596 64.8546C682.425 65.6835 682.891 66.8074 682.893 67.9797V106.667C682.891 107.84 682.425 108.964 681.596 109.792C680.767 110.621 679.643 111.088 678.471 111.089ZM614.36 67.9797V106.667H678.474L678.471 67.9797L614.36 67.9797Z" fill="white"/>
<path d="M666.312 67.9796H626.519V50.2939C626.519 37.484 634.887 28.1866 646.416 28.1866C657.944 28.1866 666.312 37.484 666.312 50.2939L666.312 67.9796ZM630.941 63.5582H661.891V50.2939C661.891 39.8809 655.527 32.6081 646.416 32.6081C637.304 32.6081 630.941 39.8809 630.941 50.2939L630.941 63.5582Z" fill="white"/>
<path d="M646.416 90.6395C648.858 90.6395 650.837 88.66 650.837 86.2181C650.837 83.7762 648.858 81.7966 646.416 81.7966C643.974 81.7966 641.994 83.7762 641.994 86.2181C641.994 88.66 643.974 90.6395 646.416 90.6395Z" fill="white"/>
<path d="M592.401 247.149H273.761C272.197 247.148 270.697 246.525 269.591 245.419C268.485 244.313 267.862 242.813 267.86 241.249V162.208C267.862 160.643 268.485 159.144 269.591 158.037C270.697 156.931 272.197 156.309 273.761 156.307H592.401C593.965 156.309 595.465 156.931 596.571 158.037C597.678 159.144 598.3 160.643 598.302 162.208V241.249C598.3 242.813 597.678 244.313 596.571 245.419C595.465 246.525 593.965 247.148 592.401 247.149ZM273.761 158.667C272.823 158.668 271.923 159.042 271.259 159.705C270.595 160.369 270.222 161.269 270.221 162.208V241.249C270.222 242.187 270.595 243.087 271.259 243.751C271.923 244.415 272.823 244.788 273.761 244.789H592.401C593.34 244.788 594.24 244.415 594.903 243.751C595.567 243.087 595.94 242.187 595.941 241.249V162.208C595.94 161.269 595.567 160.369 594.903 159.705C594.24 159.042 593.34 158.668 592.401 158.667L273.761 158.667Z" fill="#E6E6E6"/>
<path d="M323.271 222.732C336.546 222.732 347.308 211.97 347.308 198.696C347.308 185.421 336.546 174.659 323.271 174.659C309.996 174.659 299.235 185.421 299.235 198.696C299.235 211.97 309.996 222.732 323.271 222.732Z" fill="#E6E6E6"/>
<path d="M378.784 182.671C378.258 182.67 377.736 182.773 377.249 182.974C376.762 183.175 376.32 183.47 375.947 183.842C375.575 184.214 375.279 184.656 375.077 185.143C374.876 185.629 374.772 186.151 374.772 186.677C374.772 187.204 374.876 187.725 375.077 188.212C375.279 188.698 375.575 189.14 375.947 189.512C376.32 189.884 376.762 190.179 377.249 190.38C377.736 190.581 378.258 190.684 378.784 190.683H567.642C568.704 190.683 569.723 190.261 570.475 189.51C571.226 188.759 571.648 187.74 571.648 186.677C571.648 185.615 571.226 184.596 570.475 183.844C569.723 183.093 568.704 182.671 567.642 182.671H378.784Z" fill="#E6E6E6"/>
<path d="M378.784 206.708C377.722 206.708 376.703 207.13 375.951 207.881C375.2 208.632 374.778 209.651 374.778 210.714C374.778 211.776 375.2 212.795 375.951 213.546C376.703 214.298 377.722 214.72 378.784 214.72H460.05C461.113 214.72 462.132 214.298 462.883 213.546C463.634 212.795 464.056 211.776 464.056 210.714C464.056 209.651 463.634 208.632 462.883 207.881C462.132 207.13 461.113 206.708 460.05 206.708H378.784Z" fill="#E6E6E6"/>
<path d="M202.603 208.328L143.7 239.644L142.954 213.547C162.18 210.338 180.471 204.75 197.384 195.653L203.544 180.433C204.216 178.774 205.307 177.319 206.71 176.209C208.114 175.1 209.782 174.375 211.551 174.105C213.319 173.834 215.128 174.029 216.799 174.669C218.469 175.309 219.945 176.372 221.081 177.755C222.742 179.778 223.573 182.356 223.404 184.969C223.236 187.581 222.08 190.031 220.172 191.824L202.603 208.328Z" fill="#FFB8B8"/>
<path d="M58.6793 389.133C58.2496 387.557 58.1584 385.908 58.4116 384.294C58.6648 382.68 59.2568 381.138 60.1486 379.77L73.0879 359.912C76.1483 355.215 80.8444 351.823 86.2648 350.393C91.6853 348.962 97.4437 349.597 102.423 352.173C96.9849 361.429 97.743 369.549 104.301 376.606C94.1204 381.576 84.7112 387.991 76.3649 395.651C74.8412 396.69 73.0914 397.35 71.2611 397.575C69.4309 397.801 67.5732 397.586 65.8429 396.948C64.1126 396.31 62.5598 395.268 61.3137 393.909C60.0676 392.549 59.1644 390.912 58.6793 389.133Z" fill="#2F2E41"/>
<path d="M205.286 363.168C203.328 366.432 200.564 369.137 197.259 371.025C193.955 372.912 190.221 373.919 186.415 373.948L100.455 374.599L96.7267 352.976L134.753 341.792L102.692 317.187L137.735 276.178L201.385 335.503C205.105 338.97 207.522 343.609 208.232 348.645C208.942 353.681 207.902 358.808 205.286 363.168Z" fill="#2F2E41"/>
<path d="M87.0338 511.045H66.9024C48.8273 387.147 30.4285 262.903 84.797 216.53L148.919 226.968L140.718 281.398L104.928 322.406L87.0338 511.045Z" fill="#2F2E41"/>
<path d="M104.73 539.112C103.154 539.542 101.505 539.633 99.8915 539.38C98.2777 539.127 96.7358 538.535 95.3671 537.643L73.5085 534.705C68.8115 531.645 65.4187 526.949 63.9883 521.529C62.558 516.108 63.1921 510.35 65.7676 505.37C75.0244 510.808 83.1446 510.049 90.2011 503.491C95.187 513.558 103.402 512.944 111.248 521.426C112.286 522.949 112.946 524.699 113.172 526.529C113.398 528.36 113.183 530.217 112.545 531.948C111.907 533.678 110.865 535.231 109.506 536.477C108.147 537.723 106.509 538.626 104.73 539.112Z" fill="#2F2E41"/>
<path d="M134.753 133.767L97.4723 124.82C103.664 112.146 104.174 98.0438 101.2 83.0659L126.551 82.3203C127.345 100.946 129.748 118.347 134.753 133.767Z" fill="#FFB8B8"/>
<path d="M144.999 249.418C117.86 267.911 98.6845 250.051 84.0513 222.495C86.0847 205.633 82.7923 185.454 76.6946 163.528C73.9828 153.858 74.9952 143.522 79.5321 134.561C84.0689 125.6 91.8005 118.666 101.2 115.127L133.261 128.548C160.485 150.739 165.843 174.775 155.63 200.127L144.999 249.418Z" fill="#FB6D6C"/>
<path d="M66.9023 152.408L37.078 168.065L90.0162 199.381L97.3822 217.55C97.8738 218.763 98.1134 220.063 98.0861 221.372C98.0589 222.68 97.7655 223.969 97.2238 225.16C96.6821 226.351 95.9035 227.42 94.9354 228.3C93.9673 229.181 92.8301 229.855 91.593 230.281C90.1867 230.766 88.6873 230.919 87.2121 230.728C85.737 230.536 84.3261 230.006 83.0901 229.179C81.854 228.351 80.8263 227.249 80.0875 225.957C79.3487 224.666 78.9187 223.222 78.8314 221.737L78.0865 209.074L10.8027 186.87C8.53571 186.122 6.46873 184.868 4.75824 183.203C3.04775 181.537 1.73862 179.505 0.930024 177.259C-0.248625 173.985 -0.308611 170.412 0.75943 167.101C1.82747 163.789 3.96327 160.925 6.83264 158.956L60.9375 121.838L66.9023 152.408Z" fill="#FFB8B8"/>
<path d="M96.7267 155.39C84.2881 149.939 72.9773 155.86 58.7007 160.609L56.4639 121.092C70.64 113.536 84.156 111.499 96.7267 117.364L96.7267 155.39Z" fill="#FB6D6C"/>
<path d="M111.606 101.895C124.752 101.895 135.408 91.2381 135.408 78.0925C135.408 64.947 124.752 54.2904 111.606 54.2904C98.4605 54.2904 87.804 64.947 87.804 78.0925C87.804 91.2381 98.4605 101.895 111.606 101.895Z" fill="#FFB8B8"/>
<path d="M140.081 75.0893C116.515 77.3975 98.5577 73.5433 87.0811 62.5693V53.7316H138.081L140.081 75.0893Z" fill="#2F2E41"/>
</svg>
