<svg width="22" height="22" viewBox="0 0 22 22" fill="none" xmlns="http://www.w3.org/2000/svg">
<path d="M4.66548 12.7207L3.9327 15.4563L1.25442 15.513C0.454007 14.0284 0 12.3298 0 10.5248C0 8.77937 0.424486 7.13339 1.17692 5.68408H1.17749L3.56191 6.12123L4.60643 8.49135C4.38782 9.12869 4.26866 9.81287 4.26866 10.5248C4.26875 11.2975 4.40871 12.0378 4.66548 12.7207Z" fill="#FBBB00"/>
<path d="M20.8678 8.55957C20.9887 9.1963 21.0517 9.85387 21.0517 10.5259C21.0517 11.2795 20.9725 12.0146 20.8216 12.7236C20.3092 15.1365 18.9703 17.2434 17.1156 18.7343L17.115 18.7337L14.1117 18.5805L13.6866 15.9271C14.9173 15.2053 15.8791 14.0758 16.3857 12.7236H10.7573V8.55957H20.8678Z" fill="#518EF8"/>
<path d="M17.1163 18.7335L17.1168 18.7341C15.313 20.184 13.0216 21.0515 10.5272 21.0515C6.51876 21.0515 3.03369 18.811 1.25586 15.5139L4.66692 12.7217C5.55581 15.094 7.84431 16.7828 10.5272 16.7828C11.6804 16.7828 12.7608 16.471 13.6879 15.9268L17.1163 18.7335Z" fill="#28B446"/>
<path d="M17.2442 2.42324L13.8343 5.21488C12.8749 4.61515 11.7407 4.2687 10.5256 4.2687C7.78198 4.2687 5.45068 6.03494 4.60632 8.49235L1.17733 5.68508H1.17676C2.92856 2.30758 6.45758 0 10.5256 0C13.0796 0 15.4213 0.909741 17.2442 2.42324Z" fill="#F14336"/>
</svg>
