<svg width="277" height="285" viewBox="0 0 277 285" fill="none" xmlns="http://www.w3.org/2000/svg">
<g clip-path="url(#clip0_6_278)">
<mask id="mask0_6_278" style="mask-type:luminance" maskUnits="userSpaceOnUse" x="0" y="0" width="277" height="285">
<path d="M184.667 248.767C61.5556 319.843 0 284.305 0 142.153C0 0.000366211 61.5556 -35.5377 184.667 35.5384C307.778 106.615 307.778 177.691 184.667 248.767Z" fill="white"/>
</mask>
<g mask="url(#mask0_6_278)">
<path d="M184.667 248.767C61.5556 319.843 0 284.305 0 142.153C0 0.000366211 61.5556 -35.5377 184.667 35.5384C307.778 106.615 307.778 177.691 184.667 248.767Z" fill="#EB4335" fill-opacity="0.25"/>
</g>
</g>
<path d="M204.478 102.101H182.436V94.8437C182.436 82.6785 192.312 72.8018 204.478 72.8018L204.478 102.101Z" fill="#2F2E41"/>
<path d="M199.592 88.5528L203.382 105.599L181.174 101.911L190.224 85.7899L199.592 88.5528Z" fill="#A0616A"/>
<path opacity="0.1" d="M199.592 88.5528L203.382 105.599L181.174 101.911L190.224 85.7899L199.592 88.5528Z" fill="black"/>
<path d="M178.3 156.478H199.592V124.967H178.3V156.478Z" fill="#A0616A"/>
<path d="M213.431 182.241L208.747 207.365C208.747 207.365 211.728 224.824 202.786 242.709L196.824 261.02L187.882 259.742C187.882 259.742 193.417 246.116 193.417 240.154C193.417 234.193 194.695 211.198 194.695 211.198L194.056 184.959L213.431 182.241Z" fill="#2F2E41"/>
<path d="M186.604 259.317C186.604 259.317 196.824 255.484 197.676 261.02L197.25 263.575C197.25 263.575 201.082 275.072 195.547 275.924C190.011 276.776 184.901 278.053 184.475 275.498C184.049 272.943 184.056 269.754 185.117 267.516C186.178 265.278 186.604 259.317 186.604 259.317Z" fill="#2F2E41"/>
<path d="M181.196 178.344L178.708 203.779C178.708 203.779 170.989 219.721 174.605 239.387L175.239 258.633L184.184 259.893C184.184 259.893 182.656 245.265 184.314 239.538C185.972 233.812 191.14 211.369 191.14 211.369L199.051 186.343L181.196 178.344Z" fill="#2F2E41"/>
<path d="M185.529 259.84C185.529 259.84 176.778 253.316 174.421 258.397L174.119 260.969C174.119 260.969 167.24 270.947 172.321 273.305C177.402 275.663 181.955 278.311 183.074 275.975C184.194 273.639 185.074 270.574 184.677 268.129C184.28 265.684 185.529 259.84 185.529 259.84Z" fill="#2F2E41"/>
<path d="M208.322 142C218.337 151.346 219.08 166.133 213.219 183.731C213.219 183.731 194.482 196.506 180.855 180.325L174.042 147.536L208.322 142Z" fill="#2F2E41"/>
<path d="M191.501 96.4358L202.147 98.1391L201.295 124.967L213.219 148.813L197.889 156.478C197.889 156.478 185.965 133.909 183.836 119.857C181.707 105.804 182.984 95.5841 182.984 95.5841L191.501 96.4358Z" fill="#EB4335"/>
<path d="M183.41 97.2875L172.764 98.9908L173.616 125.818L171.061 150.516L177.023 157.33C177.023 157.33 188.946 134.761 191.075 120.708C193.204 106.656 191.927 96.4358 191.927 96.4358L183.41 97.2875Z" fill="#EB4335"/>
<path d="M196.185 97.9262L198.527 97.2875C198.527 97.2875 206.831 96.2229 208.109 99.6296C209.386 103.036 208.96 123.05 208.96 123.05C208.96 123.05 211.158 147.614 202.607 147.894C194.056 148.174 195.759 127.734 195.759 127.734L196.185 97.9262Z" fill="#EB4335"/>
<path d="M195.876 93.2309C201.963 93.2309 206.897 88.2966 206.897 82.2099C206.897 76.1232 201.963 71.189 195.876 71.189C189.789 71.189 184.855 76.1232 184.855 82.2099C184.855 88.2966 189.789 93.2309 195.876 93.2309Z" fill="#A0616A"/>
<path d="M182.133 98.7779L179.791 98.1391C179.791 98.1391 171.487 97.0745 170.21 100.481C168.932 103.888 169.358 123.902 169.358 123.902C169.358 123.902 167.161 148.466 175.711 148.746C184.262 149.026 182.559 128.586 182.559 128.586L182.133 98.7779Z" fill="#EB4335"/>
<path d="M189.509 97.3777C187.145 96.7779 184.465 99.303 183.522 103.019C183.125 104.499 183.088 106.052 183.414 107.548L182.398 111.773L182.323 111.769L174.31 130.654C172.447 135.045 172.643 140.086 175.02 144.222C176.434 146.682 178.289 148.336 180.468 146.648C184.084 143.846 186.446 127.805 187.524 118.59L190.017 109.224C191.018 108.064 191.726 106.68 192.083 105.19C193.026 101.475 191.874 97.9776 189.509 97.3777Z" fill="#A0616A"/>
<path d="M174.776 91.126C175.337 89.4215 176.444 87.9292 176.939 86.2045C177.596 83.9145 178.996 88.9947 179.132 86.6162C179.392 82.0953 186.292 70.466 190.231 68.2321C194.17 65.9983 196.432 66.6718 200.445 68.7697C200.445 68.7697 202.393 68.8936 204.819 70.091C207.244 71.2883 209.427 73.2059 210.37 75.7407C211.118 77.7499 211.035 79.9564 211.285 82.0856C211.981 88.0174 215.306 93.6588 214.592 99.5885C214.37 101.439 213.666 103.352 212.154 104.44C210.641 105.528 208.197 105.41 207.202 103.835C206.862 103.297 206.718 102.659 206.427 102.094C206.136 101.529 205.61 101.002 204.974 101.019C204.019 101.046 203.532 102.328 203.909 103.206C204.286 104.085 205.171 104.615 206.003 105.087C204.023 105.977 201.567 105.7 199.836 104.39C198.104 103.08 197.17 100.793 197.488 98.6453C197.937 95.6193 202.345 96.2456 202.865 93.2309C203.243 91.0363 204.57 87.3642 204.209 85.1668C203.847 82.9694 202.11 85.63 203.94 84.3604C201.927 85.3307 197.622 78.6926 195.515 77.9491C193.407 77.2056 191.621 75.5957 190.663 73.577C188.428 76.8169 186.462 75.937 185.661 79.7907C184.861 83.6444 185.601 92.3995 188.897 94.551C187.578 95.451 186.526 96.7379 185.907 98.2098C185.557 99.0437 185.33 99.9561 184.748 100.649C183.636 101.971 181.584 102.052 179.948 101.496C177.92 100.806 176.186 99.2914 175.23 97.3744C174.274 95.4574 174.107 93.161 174.776 91.126Z" fill="#2F2E41"/>
<path d="M170.083 10.1884H82.5026C72.5709 10.1884 64.5197 18.2396 64.5197 28.1712V258.305C64.5197 268.237 72.5709 276.288 82.5025 276.288H170.083C180.015 276.288 188.066 268.237 188.066 258.305V28.1712C188.066 18.2396 180.015 10.1884 170.083 10.1884Z" fill="white"/>
<path d="M170.083 276.713H82.5025C72.352 276.713 64.0938 268.455 64.0938 258.305V28.1713C64.0938 18.0208 72.352 9.76257 82.5025 9.76257H170.083C180.233 9.76257 188.492 18.0208 188.492 28.1713V258.305C188.492 268.455 180.233 276.713 170.083 276.713ZM82.5025 10.6142C72.8215 10.6142 64.9455 18.4903 64.9455 28.1713V258.305C64.9455 267.986 72.8215 275.862 82.5025 275.862H170.083C179.764 275.862 187.64 267.986 187.64 258.305V28.1713C187.64 18.4903 179.764 10.6142 170.083 10.6142H82.5025Z" fill="#3F3D56"/>
<path d="M57.2825 50.032C56.5136 50.032 55.8884 50.6572 55.8884 51.4261V62.5793C55.8884 63.3482 56.5136 63.9734 57.2825 63.9734C58.0514 63.9734 58.6766 63.3482 58.6766 62.5793V51.4261C58.6766 50.6572 58.0514 50.032 57.2825 50.032Z" fill="#3F3D56"/>
<path d="M176.427 47.0064H141.224C139.731 47.0064 138.516 45.7916 138.516 44.2985C138.516 42.8054 139.731 41.5906 141.224 41.5906H176.427C177.92 41.5906 179.135 42.8054 179.135 44.2985C179.135 45.7916 177.92 47.0064 176.427 47.0064Z" fill="#E6E6E6"/>
<path d="M143.402 68.3011H109.184C108.321 68.3011 107.619 67.5992 107.619 66.7365C107.619 65.8738 108.321 65.1722 109.184 65.1722H143.402C144.265 65.1722 144.966 65.8738 144.966 66.7365C144.966 67.5992 144.265 68.3011 143.402 68.3011Z" fill="#EB4335"/>
<path d="M58.6361 76.0227C73.8991 76.0227 86.2722 63.9103 86.2722 48.9689C86.2722 34.0276 73.8991 21.9152 58.6361 21.9152C43.3731 21.9152 31 34.0276 31 48.9689C31 63.9103 43.3731 76.0227 58.6361 76.0227Z" fill="#EB4335"/>
<path d="M68.0158 35.3228C64.3366 42.0223 60.6573 48.7218 56.9781 55.4213C54.6332 51.2782 52.3011 47.1277 49.9504 42.9878C49.1386 41.558 46.9304 42.844 47.7443 44.2774C50.4692 49.0764 53.1659 53.8915 55.8909 58.6906C56.3568 59.5111 57.6359 59.5302 58.0971 58.6906C62.1387 51.3312 66.1803 43.9718 70.222 36.6124C71.0139 35.1703 68.8084 33.8796 68.0158 35.3228Z" fill="white"/>
<path d="M95.0376 16.0043H75.5014C75.4285 16.0043 75.3693 16.0635 75.3693 16.1364V18.4107C75.3693 18.4837 75.4285 18.5428 75.5014 18.5428H95.0376C95.1106 18.5428 95.1697 18.4837 95.1697 18.4107V16.1364C95.1697 16.0635 95.1106 16.0043 95.0376 16.0043Z" fill="#E6E6E6"/>
<path d="M160.842 18.5428C161.963 18.5428 162.873 17.6336 162.873 16.512C162.873 15.3904 161.963 14.4812 160.842 14.4812C159.72 14.4812 158.811 15.3904 158.811 16.512C158.811 17.6336 159.72 18.5428 160.842 18.5428Z" fill="#E6E6E6"/>
<path d="M166.426 18.5428C167.548 18.5428 168.457 17.6336 168.457 16.512C168.457 15.3904 167.548 14.4812 166.426 14.4812C165.305 14.4812 164.396 15.3904 164.396 16.512C164.396 17.6336 165.305 18.5428 166.426 18.5428Z" fill="#E6E6E6"/>
<path d="M172.011 18.5428C173.133 18.5428 174.042 17.6336 174.042 16.512C174.042 15.3904 173.133 14.4812 172.011 14.4812C170.89 14.4812 169.98 15.3904 169.98 16.512C169.98 17.6336 170.89 18.5428 172.011 18.5428Z" fill="#E6E6E6"/>
<path d="M82.2893 76.6761C82.2893 76.9571 82.515 77.1828 82.7961 77.1828H169.789C170.07 77.1828 170.296 76.9571 170.296 76.6761C170.296 76.395 170.07 76.1693 169.789 76.1693H82.7961C82.515 76.1693 82.2893 76.395 82.2893 76.6761Z" fill="#3F3D56"/>
<path d="M161.447 116.505H109.241C108.378 116.505 107.676 115.803 107.676 114.94C107.676 114.077 108.378 113.376 109.241 113.376H161.447C162.31 113.376 163.011 114.077 163.011 114.94C163.011 115.803 162.31 116.505 161.447 116.505Z" fill="#EB4335"/>
<path d="M161.447 139.074H109.241C108.378 139.074 107.676 138.372 107.676 137.509C107.676 136.646 108.378 135.945 109.241 135.945H161.447C162.31 135.945 163.011 136.646 163.011 137.509C163.011 138.372 162.31 139.074 161.447 139.074Z" fill="#EB4335"/>
<path d="M161.447 161.643H109.241C108.378 161.643 107.676 160.941 107.676 160.078C107.676 159.215 108.378 158.514 109.241 158.514H161.447C162.31 158.514 163.011 159.215 163.011 160.078C163.011 160.941 162.31 161.643 161.447 161.643Z" fill="#EB4335"/>
<path d="M93.4065 118.579C95.5231 118.579 97.239 116.863 97.239 114.747C97.239 112.63 95.5231 110.914 93.4065 110.914C91.2898 110.914 89.574 112.63 89.574 114.747C89.574 116.863 91.2898 118.579 93.4065 118.579Z" fill="#EB4335"/>
<path d="M92.9806 121.134V120.282C96.1505 120.282 98.7294 117.704 98.7294 114.534C98.7294 111.364 96.1505 108.785 92.9806 108.785V107.933C96.6202 107.933 99.581 110.894 99.581 114.534C99.581 118.173 96.6202 121.134 92.9806 121.134Z" fill="#3F3D56"/>
<path d="M93.4065 141.148C95.5231 141.148 97.239 139.432 97.239 137.316C97.239 135.199 95.5231 133.483 93.4065 133.483C91.2898 133.483 89.574 135.199 89.574 137.316C89.574 139.432 91.2898 141.148 93.4065 141.148Z" fill="#EB4335"/>
<path d="M92.9806 143.703V142.852C96.1505 142.852 98.7294 140.273 98.7294 137.103C98.7294 133.933 96.1505 131.354 92.9806 131.354V130.502C96.6202 130.502 99.581 133.463 99.581 137.103C99.581 140.742 96.6202 143.703 92.9806 143.703Z" fill="#3F3D56"/>
<path d="M93.4065 163.717C95.5231 163.717 97.239 162.001 97.239 159.885C97.239 157.768 95.5231 156.052 93.4065 156.052C91.2898 156.052 89.574 157.768 89.574 159.885C89.574 162.001 91.2898 163.717 93.4065 163.717Z" fill="#EB4335"/>
<path d="M92.9806 166.272V165.421C96.1505 165.421 98.7294 162.842 98.7294 159.672C98.7294 156.502 96.1505 153.923 92.9806 153.923V153.071C96.6202 153.071 99.581 156.032 99.581 159.672C99.581 163.311 96.6202 166.272 92.9806 166.272Z" fill="#3F3D56"/>
<path d="M188.809 96.5261C191.173 95.9262 193.853 98.4514 194.796 102.168C195.193 103.647 195.23 105.2 194.904 106.697L195.92 110.921L195.995 110.917L204.008 129.802C205.872 134.193 205.675 139.234 203.298 143.37C201.884 145.83 200.029 147.484 197.85 145.796C194.234 142.994 191.872 126.953 190.794 117.739L188.301 108.372C187.3 107.212 186.592 105.829 186.235 104.339C185.292 100.624 186.444 97.1259 188.809 96.5261Z" fill="#A0616A"/>
<path d="M197.911 106.875L188.946 113.248L193.429 141.478L199.051 148.749L205.6 146.484L207.515 133.139L205.261 120.233L197.911 106.875Z" fill="#EB4335"/>
<defs>
<clipPath id="clip0_6_278">
<rect width="277" height="284.304" fill="white"/>
</clipPath>
</defs>
</svg>
