<svg width="312" height="286" viewBox="0 0 312 286" fill="none" xmlns="http://www.w3.org/2000/svg">
<mask id="mask0_6_285" style="mask-type:luminance" maskUnits="userSpaceOnUse" x="0" y="4" width="221" height="221">
<path d="M184.167 188.167C135.056 237.278 85.9445 237.278 36.8333 188.167C-12.2778 139.056 -12.2778 89.9445 36.8333 40.8333C85.9445 -8.27778 135.056 -8.27778 184.167 40.8333C233.278 89.9445 233.278 139.056 184.167 188.167Z" fill="white"/>
</mask>
<g mask="url(#mask0_6_285)">
<path d="M184.167 188.167C135.056 237.278 85.9445 237.278 36.8333 188.167C-12.2778 139.056 -12.2778 89.9445 36.8333 40.8333C85.9445 -8.27778 135.056 -8.27778 184.167 40.8333C233.278 89.9445 233.278 139.056 184.167 188.167Z" fill="#EB4335" fill-opacity="0.25"/>
</g>
<path d="M278.848 236.522C273.413 252.442 266.423 268.328 257.468 283.448C257.269 283.788 257.068 284.122 256.865 284.461L234.695 277.448C234.823 277.127 234.962 276.768 235.112 276.376C244.054 253.25 298.004 112.354 295.583 84.5745C295.843 86.8484 304.283 162.101 278.848 236.522Z" fill="#E6E6E6"/>
<path d="M261.745 284.801C261.444 285.109 261.134 285.415 260.823 285.714L244.192 280.452C244.416 280.18 244.678 279.86 244.979 279.497C249.905 273.482 264.549 255.472 278.849 236.522C294.216 216.158 309.188 194.712 311.286 185.899C310.865 187.903 297.741 248.905 261.745 284.801Z" fill="#E6E6E6"/>
<path d="M270.058 50.2027C270.052 50.2027 270.046 50.2045 270.04 50.2047V14.5534C270.04 10.6936 268.507 6.99188 265.777 4.26259C263.048 1.5333 259.346 0 255.486 0H143.871C140.011 0 136.309 1.5333 133.58 4.26259C130.851 6.99188 129.317 10.6936 129.317 14.5534V32.8301C129.009 32.8367 128.716 32.9637 128.5 33.1838C128.284 33.404 128.164 33.6998 128.163 34.0081V43.0607C128.164 43.3689 128.284 43.6648 128.5 43.8849C128.716 44.105 129.009 44.2319 129.317 44.2384V53.7219H129.258C129.103 53.7219 128.95 53.7525 128.806 53.8118C128.663 53.8711 128.533 53.9581 128.423 54.0677C128.314 54.1773 128.227 54.3074 128.168 54.4507C128.108 54.5939 128.078 54.7474 128.078 54.9024V72.408C128.078 72.5631 128.108 72.7166 128.168 72.8598C128.227 73.003 128.314 73.1332 128.423 73.2428C128.533 73.3524 128.663 73.4394 128.806 73.4987C128.95 73.558 129.103 73.5885 129.258 73.5885H129.317V80.5412H129.299C129.144 80.5412 128.99 80.5717 128.847 80.631C128.704 80.6904 128.574 80.7773 128.464 80.8869C128.355 80.9966 128.268 81.1267 128.208 81.2699C128.149 81.4131 128.118 81.5667 128.118 81.7217V99.3985C128.118 99.5535 128.149 99.707 128.208 99.8503C128.268 99.9935 128.355 100.124 128.464 100.233C128.574 100.343 128.704 100.43 128.847 100.489C128.99 100.548 129.144 100.579 129.299 100.579H129.317V271.447C129.317 275.306 130.851 279.008 133.58 281.737C136.309 284.467 140.011 286 143.871 286H255.486C259.346 286 263.048 284.467 265.777 281.737C268.507 279.008 270.04 275.306 270.04 271.447V84.8698C270.046 84.8698 270.052 84.8716 270.058 84.8716C270.334 84.8716 270.608 84.8173 270.863 84.7116C271.118 84.606 271.349 84.4512 271.545 84.256C271.74 84.0608 271.895 83.8291 272 83.574C272.106 83.319 272.16 83.0457 272.16 82.7696V52.3049C272.16 51.7474 271.939 51.2127 271.545 50.8184C271.15 50.4242 270.616 50.2027 270.058 50.2027Z" fill="#3F3D56"/>
<path d="M261.35 18.6271V267.369C261.349 270.332 260.171 273.174 258.075 275.27C255.979 277.365 253.137 278.542 250.173 278.542H149.184C146.22 278.542 143.378 277.365 141.282 275.27C139.186 273.174 138.008 270.332 138.007 267.369V18.6271C138.007 15.6628 139.184 12.8199 141.281 10.7238C143.377 8.62765 146.22 7.45007 149.184 7.45007H164.296V9.41146C164.297 11.852 165.267 14.1923 166.993 15.9181C168.719 17.6438 171.059 18.6138 173.499 18.6149H224.879C227.316 18.6095 229.652 17.6375 231.374 15.9121C233.095 14.1867 234.062 11.8488 234.062 9.41146V7.47046H250.173C253.134 7.47046 255.974 8.64524 258.069 10.7369C260.165 12.8286 261.345 15.6663 261.35 18.6271Z" fill="white"/>
<path d="M97.5882 139.573C96.991 139.342 96.3503 139.245 95.7114 139.288C95.0724 139.331 94.4507 139.514 93.89 139.823C93.3292 140.132 92.8432 140.561 92.466 141.079C92.0889 141.596 91.8298 142.19 91.707 142.819L55.7193 162.387L62.0468 169.508L95.4679 148.06C96.5374 148.196 97.6198 147.935 98.5099 147.327C99.4 146.718 100.036 145.804 100.297 144.758C100.559 143.712 100.427 142.607 99.928 141.651C99.4287 140.695 98.5961 139.956 97.5882 139.573Z" fill="#FFB8B8"/>
<path d="M88.41 280.365L92.8943 277.465L83.8405 258.787L77.222 263.068L88.41 280.365Z" fill="#FFB8B8"/>
<path d="M104.236 276.034L90.1423 285.151L86.6201 279.705L95.4721 273.98C96.8623 273.08 98.5528 272.77 100.172 273.117C101.79 273.465 103.205 274.441 104.104 275.831L104.236 276.034Z" fill="#2F2E41"/>
<path d="M38.094 281.04H43.4346L45.9763 260.44H38.094V281.04Z" fill="#FFB8B8"/>
<path d="M53.7348 285.999H36.9497V279.514H47.4921C48.3119 279.514 49.1237 279.675 49.8811 279.989C50.6385 280.302 51.3267 280.762 51.9064 281.342C52.4861 281.922 52.9459 282.61 53.2596 283.367C53.5733 284.125 53.7348 284.936 53.7348 285.756V285.999Z" fill="#2F2E41"/>
<path d="M160.625 40.3665H149.616C149.345 40.3665 149.086 40.2591 148.895 40.0679C148.703 39.8767 148.596 39.6174 148.596 39.3471C148.596 39.0767 148.703 38.8174 148.895 38.6262C149.086 38.435 149.345 38.3276 149.616 38.3276H160.625C160.896 38.3276 161.155 38.435 161.346 38.6262C161.537 38.8174 161.645 39.0767 161.645 39.3471C161.645 39.6174 161.537 39.8767 161.346 40.0679C161.155 40.2591 160.896 40.3665 160.625 40.3665Z" fill="#3F3D56"/>
<path d="M160.625 43.2209H149.616C149.345 43.2209 149.086 43.1135 148.895 42.9223C148.703 42.7311 148.596 42.4718 148.596 42.2014C148.596 41.9311 148.703 41.6718 148.895 41.4806C149.086 41.2894 149.345 41.182 149.616 41.182H160.625C160.896 41.182 161.155 41.2894 161.346 41.4806C161.537 41.6718 161.645 41.9311 161.645 42.2014C161.645 42.4718 161.537 42.7311 161.346 42.9223C161.155 43.1135 160.896 43.2209 160.625 43.2209Z" fill="#3F3D56"/>
<path d="M160.625 46.0752H149.616C149.345 46.0752 149.086 45.9678 148.895 45.7766C148.703 45.5854 148.596 45.3261 148.596 45.0557C148.596 44.7854 148.703 44.5261 148.895 44.3349C149.086 44.1437 149.345 44.0363 149.616 44.0363H160.625C160.896 44.0363 161.155 44.1437 161.346 44.3349C161.537 44.5261 161.645 44.7854 161.645 45.0557C161.645 45.3261 161.537 45.5854 161.346 45.7766C161.155 45.9678 160.896 46.0752 160.625 46.0752Z" fill="#3F3D56"/>
<path d="M245.969 43.2412H245.598L245.455 43.1229C245.924 42.5642 246.181 41.8582 246.181 41.1289C246.178 40.5289 245.997 39.9433 245.661 39.4462C245.324 38.9491 244.849 38.5628 244.293 38.3362C243.737 38.1095 243.127 38.0527 242.539 38.173C241.951 38.2932 241.412 38.585 240.99 39.0116C240.568 39.4382 240.282 39.9803 240.168 40.5694C240.055 41.1585 240.118 41.7682 240.35 42.3213C240.583 42.8744 240.974 43.3462 241.475 43.6768C241.976 44.0075 242.563 44.1823 243.163 44.1791C243.891 44.1739 244.594 43.9175 245.153 43.4532L245.292 43.5715V43.9466L247.633 46.2913L248.334 45.59L245.969 43.2412ZM243.163 43.2412C242.746 43.2428 242.337 43.1205 241.988 42.8898C241.64 42.659 241.368 42.3302 241.207 41.9448C241.046 41.5595 241.002 41.1349 241.082 40.7249C241.162 40.3148 241.362 39.9377 241.656 39.6411C241.95 39.3446 242.326 39.142 242.735 39.0589C243.145 38.9758 243.569 39.016 243.956 39.1744C244.343 39.3327 244.674 39.6022 244.907 39.9486C245.14 40.2951 245.266 40.703 245.267 41.1208L245.267 41.1289C245.269 41.4047 245.216 41.6781 245.112 41.9335C245.008 42.1889 244.855 42.4213 244.661 42.6174C244.467 42.8136 244.237 42.9696 243.982 43.0766C243.728 43.1837 243.455 43.2396 243.18 43.2412C243.174 43.2412 243.169 43.2412 243.163 43.2412Z" fill="#3F3D56"/>
<path d="M183.055 77.8817H163.276C162.086 77.8817 160.945 77.4091 160.104 76.5679C159.263 75.7267 158.79 74.5858 158.79 73.3962C158.79 72.2065 159.263 71.0656 160.104 70.2244C160.945 69.3832 162.086 68.9106 163.276 68.9106H183.055C184.245 68.9106 185.386 69.3832 186.227 70.2244C187.068 71.0656 187.541 72.2065 187.541 73.3962C187.541 74.5858 187.068 75.7267 186.227 76.5679C185.386 77.4091 184.245 77.8817 183.055 77.8817Z" fill="#EB4335"/>
<path d="M243.607 87.668H161.237C160.588 87.668 159.966 87.4102 159.507 86.9514C159.048 86.4926 158.79 85.8702 158.79 85.2214C158.79 84.5725 159.048 83.9502 159.507 83.4913C159.966 83.0325 160.588 82.7747 161.237 82.7747H243.607C244.256 82.7747 244.878 83.0325 245.337 83.4913C245.796 83.9502 246.054 84.5725 246.054 85.2214C246.054 85.8702 245.796 86.4926 245.337 86.9514C244.878 87.4102 244.256 87.668 243.607 87.668Z" fill="#E6E6E6"/>
<path d="M191.494 97.4546H161.237C160.588 97.4546 159.966 97.1969 159.507 96.738C159.048 96.2792 158.79 95.6569 158.79 95.008C158.79 94.3591 159.048 93.7368 159.507 93.2779C159.966 92.8191 160.588 92.5613 161.237 92.5613H191.494C192.143 92.5613 192.765 92.8191 193.224 93.2779C193.683 93.7368 193.941 94.3591 193.941 95.008C193.941 95.6569 193.683 96.2792 193.224 96.738C192.765 97.1969 192.143 97.4546 191.494 97.4546Z" fill="#E6E6E6"/>
<path d="M183.055 186.349H163.276C162.086 186.349 160.945 185.877 160.104 185.035C159.263 184.194 158.79 183.053 158.79 181.864C158.79 180.674 159.263 179.533 160.104 178.692C160.945 177.851 162.086 177.378 163.276 177.378H183.055C184.245 177.378 185.386 177.851 186.227 178.692C187.068 179.533 187.541 180.674 187.541 181.864C187.541 183.053 187.068 184.194 186.227 185.035C185.386 185.877 184.245 186.349 183.055 186.349Z" fill="#EB4335"/>
<path d="M243.607 196.136H161.237C160.588 196.136 159.966 195.878 159.507 195.419C159.048 194.96 158.79 194.338 158.79 193.689C158.79 193.04 159.048 192.418 159.507 191.959C159.966 191.5 160.588 191.243 161.237 191.243H243.607C244.256 191.243 244.878 191.5 245.337 191.959C245.796 192.418 246.054 193.04 246.054 193.689C246.054 194.338 245.796 194.96 245.337 195.419C244.878 195.878 244.256 196.136 243.607 196.136Z" fill="#E6E6E6"/>
<path d="M191.494 205.922H161.237C160.588 205.922 159.966 205.664 159.507 205.206C159.048 204.747 158.79 204.125 158.79 203.476C158.79 202.827 159.048 202.204 159.507 201.746C159.966 201.287 160.588 201.029 161.237 201.029H191.494C192.143 201.029 192.765 201.287 193.224 201.746C193.683 202.204 193.941 202.827 193.941 203.476C193.941 204.125 193.683 204.747 193.224 205.206C192.765 205.664 192.143 205.922 191.494 205.922Z" fill="#E6E6E6"/>
<path d="M183.055 236.505H163.276C162.086 236.505 160.945 236.033 160.104 235.191C159.263 234.35 158.79 233.209 158.79 232.02C158.79 230.83 159.263 229.689 160.104 228.848C160.945 228.007 162.086 227.534 163.276 227.534H183.055C184.245 227.534 185.386 228.007 186.227 228.848C187.068 229.689 187.541 230.83 187.541 232.02C187.541 233.209 187.068 234.35 186.227 235.191C185.386 236.033 184.245 236.505 183.055 236.505Z" fill="#EB4335"/>
<path d="M243.607 246.292H161.237C160.588 246.292 159.966 246.034 159.507 245.575C159.048 245.116 158.79 244.494 158.79 243.845C158.79 243.196 159.048 242.574 159.507 242.115C159.966 241.656 160.588 241.398 161.237 241.398H243.607C244.256 241.398 244.878 241.656 245.337 242.115C245.796 242.574 246.054 243.196 246.054 243.845C246.054 244.494 245.796 245.116 245.337 245.575C244.878 246.034 244.256 246.292 243.607 246.292Z" fill="#E6E6E6"/>
<path d="M191.494 256.078H161.237C160.588 256.078 159.966 255.821 159.507 255.362C159.048 254.903 158.79 254.281 158.79 253.632C158.79 252.983 159.048 252.361 159.507 251.902C159.966 251.443 160.588 251.185 161.237 251.185H191.494C192.143 251.185 192.765 251.443 193.224 251.902C193.683 252.361 193.941 252.983 193.941 253.632C193.941 254.281 193.683 254.903 193.224 255.362C192.765 255.821 192.143 256.078 191.494 256.078Z" fill="#E6E6E6"/>
<path d="M255.229 160.863H97.8283C96.9093 160.862 96.0283 160.497 95.3785 159.847C94.7288 159.197 94.3632 158.316 94.3622 157.397V114.581C94.3632 113.662 94.7287 112.781 95.3785 112.131C96.0283 111.482 96.9093 111.116 97.8283 111.115H255.229C256.148 111.116 257.029 111.482 257.678 112.131C258.328 112.781 258.694 113.662 258.695 114.581V157.397C258.694 158.316 258.328 159.197 257.678 159.847C257.029 160.497 256.148 160.862 255.229 160.863Z" fill="#EB4335"/>
<path d="M41.2422 211.802C42.7469 222.36 34.779 269.131 35.6639 269.127L47.106 269.066C47.5138 268.283 52.7659 243.046 54.4133 238.997C56.7131 233.378 59.0334 227.689 59.9386 221.687C60.7909 216.051 60.3709 210.31 59.8163 204.638C59.8421 204.469 59.8274 204.297 59.7734 204.135C59.7194 203.973 59.6277 203.826 59.5058 203.707C59.3839 203.587 59.2353 203.498 59.0724 203.447C58.9094 203.397 58.7367 203.385 58.5685 203.414L43.2159 202.623C40.0515 202.46 39.3012 201.767 39.7824 204.874C40.1168 207.195 40.9079 209.454 41.2422 211.802Z" fill="#2F2E41"/>
<path d="M44.2598 186.133C41.1403 190.619 37.87 195.781 38.9057 201.151C39.6927 205.229 42.7999 208.389 45.7318 211.346C57.4512 223.114 80.5597 275.04 80.5597 275.04C91.7117 267.904 80.294 275.244 91.6104 267.7C90.6073 267.623 67.8168 185.697 65.9288 185.587C58.2913 185.081 51.7016 184.335 44.2598 186.133Z" fill="#2F2E41"/>
<path d="M56.5985 143.44C55.014 142.026 43.8791 137.669 43.8791 137.669C43.6743 137.642 43.4666 137.648 43.2639 137.687C42.6302 137.847 42.341 138.635 42.4764 139.271C42.6117 139.908 41.5013 150.373 41.2152 155.132C40.7138 163.437 45.6047 182.25 45.5617 182.825C45.3941 184.877 44.4958 186.8 43.0301 188.245C43.411 188.718 67.6045 189.666 69.2502 190.226C69.5824 189.805 67.3769 159.964 67.2754 158.278C67.1062 155.719 58.6902 145.377 56.5985 143.44Z" fill="#E6E6E6"/>
<path d="M39.3426 208.189C39.9159 207.904 40.4197 207.496 40.8185 206.995C41.2173 206.494 41.5014 205.911 41.6508 205.289C41.8001 204.666 41.8111 204.018 41.6829 203.391C41.5548 202.763 41.2906 202.171 40.9091 201.657L51.1169 145.164L41.5912 145.039L34.5025 200.903C33.681 201.601 33.1441 202.576 32.9937 203.644C32.8432 204.712 33.0897 205.798 33.6863 206.696C34.2829 207.594 35.1882 208.242 36.2307 208.517C37.2732 208.792 38.3804 208.676 39.3426 208.189Z" fill="#FFB8B8"/>
<path d="M39.2605 149.356C38.8632 149.385 38.4676 149.282 38.1351 149.063C37.5683 148.577 42.1924 141.152 43.1058 141.042C46.0785 140.699 49.1368 140.585 52.0197 141.388C54.9027 142.192 57.6144 144.018 58.903 146.722C59.4412 147.847 55.5388 153.511 53.765 152.68C51.6405 151.685 42.0578 149.425 39.2605 149.356Z" fill="#E6E6E6"/>
<path d="M49.7527 137.06C55.6619 137.06 60.4522 132.27 60.4522 126.361C60.4522 120.452 55.6619 115.661 49.7527 115.661C43.8436 115.661 39.0533 120.452 39.0533 126.361C39.0533 132.27 43.8436 137.06 49.7527 137.06Z" fill="#FFB8B8"/>
<path d="M39.2435 144.052C40.7303 144.207 42.2324 143.987 43.6124 143.412C44.9923 142.837 46.2061 141.926 47.1426 140.76C48.0791 139.595 48.7084 138.213 48.973 136.742C49.2376 135.271 49.129 133.757 48.6572 132.338C48.2314 131.058 47.5196 129.885 47.1297 128.593C46.7398 127.302 46.7291 125.774 47.594 124.739C49.2861 122.713 52.5476 123.987 55.1563 123.585C57.9359 123.156 60.0684 120.489 60.2908 117.685C60.5133 114.881 59.0519 112.107 56.8764 110.324C54.7009 108.541 51.8951 107.664 49.096 107.389C45.5013 107.035 41.8761 107.614 38.5696 109.068C35.2632 110.522 32.3867 112.803 30.2173 115.691C28.0479 118.579 26.6585 121.976 26.1831 125.557C25.7076 129.138 26.162 132.78 27.5026 136.135C28.672 139.061 30.5822 141.786 33.2953 143.388C36.0085 144.991 39.5919 145.299 42.296 143.681" fill="#2F2E41"/>
<path d="M153.806 130.688H126.463C124.727 130.688 123.314 128.676 123.314 126.203C123.314 123.729 124.727 121.717 126.463 121.717H153.806C155.543 121.717 156.955 123.729 156.955 126.203C156.955 128.676 155.543 130.688 153.806 130.688Z" fill="white"/>
<path d="M227.296 140.475H125.761C125.112 140.475 124.49 140.217 124.031 139.758C123.572 139.299 123.314 138.677 123.314 138.028C123.314 137.379 123.572 136.757 124.031 136.298C124.49 135.839 125.112 135.581 125.761 135.581H227.296C227.945 135.581 228.568 135.839 229.026 136.298C229.485 136.757 229.743 137.379 229.743 138.028C229.743 138.677 229.485 139.299 229.026 139.758C228.568 140.217 227.945 140.475 227.296 140.475Z" fill="#E6E6E6"/>
<path d="M175.183 150.261H125.761C125.112 150.261 124.49 150.004 124.031 149.545C123.572 149.086 123.314 148.464 123.314 147.815C123.314 147.166 123.572 146.543 124.031 146.085C124.49 145.626 125.112 145.368 125.761 145.368H175.183C175.832 145.368 176.454 145.626 176.913 146.085C177.372 146.543 177.63 147.166 177.63 147.815C177.63 148.464 177.372 149.086 176.913 149.545C176.454 150.004 175.832 150.261 175.183 150.261Z" fill="#E6E6E6"/>
</svg>
