<svg width="297" height="286" viewBox="0 0 297 286" fill="none" xmlns="http://www.w3.org/2000/svg">
<mask id="mask0_7_381" style="mask-type:luminance" maskUnits="userSpaceOnUse" x="29" y="38" width="268" height="246">
<path d="M269.91 227.911C231.41 281.638 183.191 296.308 125.255 271.92C67.3182 247.533 35.6264 203.956 30.1794 141.192C24.7324 78.4274 51.1628 44.6311 109.471 39.8031C167.779 34.975 218.721 51.6875 262.297 89.9404C305.873 128.193 308.411 174.184 269.91 227.911Z" fill="white"/>
</mask>
<g mask="url(#mask0_7_381)">
<path d="M269.91 227.911C231.41 281.638 183.191 296.308 125.255 271.92C67.3182 247.533 35.6264 203.956 30.1794 141.192C24.7324 78.4274 51.1628 44.6311 109.471 39.8031C167.779 34.975 218.721 51.6875 262.297 89.9404C305.873 128.193 308.411 174.184 269.91 227.911Z" fill="#EB4335" fill-opacity="0.25"/>
</g>
<path d="M217.986 285.309H128.479C115.055 285.309 104.132 274.387 104.132 260.962V24.347C104.132 10.9221 115.055 0 128.479 0H217.986C231.411 0 242.333 10.9221 242.333 24.347C243.999 119.364 246.84 225.769 242.333 260.962C242.333 274.387 231.411 285.309 217.986 285.309Z" fill="#3F3D56"/>
<path d="M243.581 87.0346C243.013 87.0346 242.551 87.4965 242.551 88.0646V121.024C242.551 121.593 243.013 122.054 243.581 122.054C244.149 122.054 244.611 121.593 244.611 121.024V88.0646C244.611 87.4965 244.149 87.0346 243.581 87.0346Z" fill="#3F3D56"/>
<path d="M240.016 24.3472V260.958C240.016 272.643 230.921 282.201 219.421 282.943H219.416C219.246 282.953 219.076 282.964 218.901 282.969C218.597 282.984 218.293 282.989 217.984 282.989C217.984 282.989 216.851 282.907 214.781 282.753C212.69 282.598 209.646 282.366 205.851 282.062C204.712 281.975 203.512 281.877 202.246 281.774C199.722 281.568 196.951 281.341 193.98 281.084C192.795 280.986 191.57 280.878 190.318 280.77C183.922 280.219 176.758 279.575 169.203 278.844C167.926 278.725 166.639 278.602 165.341 278.473C165.001 278.437 106.45 263.718 106.45 260.958V24.3472C106.45 12.1778 116.312 2.31561 128.482 2.31561H141.635C143.736 2.31561 145.425 3.9533 145.605 6.04935C145.621 6.18841 145.636 6.32744 145.662 6.4665C146.043 8.57285 147.974 10.0406 150.117 10.0406H196.349C198.491 10.0406 200.423 8.57285 200.804 6.4665C200.829 6.32744 200.845 6.18841 200.86 6.04935C201.041 3.95331 202.73 2.31561 204.831 2.31561H217.984C230.153 2.31561 240.016 12.1778 240.016 24.3472Z" fill="white"/>
<path d="M103.617 62.3148C103.049 62.3148 102.587 62.7768 102.587 63.3448V71.5848C102.587 72.1528 103.049 72.6148 103.617 72.6148C104.185 72.6148 104.647 72.1528 104.647 71.5848V63.3448C104.647 62.7768 104.185 62.3148 103.617 62.3148Z" fill="#3F3D56"/>
<path d="M103.617 87.0346C103.049 87.0346 102.587 87.4966 102.587 88.0646V104.03C102.587 104.598 103.049 105.06 103.617 105.06C104.185 105.06 104.647 104.598 104.647 104.03V88.0646C104.647 87.4965 104.185 87.0346 103.617 87.0346Z" fill="#3F3D56"/>
<path d="M103.617 109.695C103.049 109.695 102.587 110.156 102.587 110.725V126.689C102.587 127.258 103.049 127.719 103.617 127.719C104.185 127.719 104.647 127.258 104.647 126.689V110.725C104.647 110.156 104.185 109.695 103.617 109.695Z" fill="#3F3D56"/>
<path d="M141.297 5.92255H121.558C121.462 5.92255 121.385 6.00009 121.385 6.09574V8.32433C121.385 8.41999 121.462 8.49753 121.558 8.49753H141.297C141.392 8.49753 141.47 8.41999 141.47 8.32433V6.09574C141.47 6.00009 141.392 5.92255 141.297 5.92255Z" fill="#E6E6E6"/>
<path d="M208.086 8.49755C209.224 8.49755 210.146 7.57526 210.146 6.43755C210.146 5.29985 209.224 4.37756 208.086 4.37756C206.948 4.37756 206.026 5.29985 206.026 6.43755C206.026 7.57526 206.948 8.49755 208.086 8.49755Z" fill="#E6E6E6"/>
<path d="M213.751 8.49755C214.888 8.49755 215.811 7.57526 215.811 6.43755C215.811 5.29985 214.888 4.37756 213.751 4.37756C212.613 4.37756 211.691 5.29985 211.691 6.43755C211.691 7.57526 212.613 8.49755 213.751 8.49755Z" fill="#E6E6E6"/>
<path d="M219.416 8.49755C220.553 8.49755 221.476 7.57526 221.476 6.43755C221.476 5.29985 220.553 4.37756 219.416 4.37756C218.278 4.37756 217.356 5.29985 217.356 6.43755C217.356 7.57526 218.278 8.49755 219.416 8.49755Z" fill="#E6E6E6"/>
<path d="M105.598 281.001L99.3208 281.001L96.3344 256.786L105.6 256.787L105.598 281.001Z" fill="#FFB6B6"/>
<path d="M84.0902 280.859C83.8948 281.188 83.7916 282.25 83.7916 282.633C83.7916 283.81 84.7455 284.764 85.9223 284.764H105.364C106.166 284.764 106.817 284.113 106.817 283.31V282.501C106.817 282.501 107.779 280.068 105.799 277.07C105.799 277.07 103.338 279.418 99.6606 275.74L98.5762 273.776L90.7266 279.517L86.3758 280.052C85.4239 280.169 84.5799 280.034 84.0902 280.859Z" fill="#2F2E41"/>
<path d="M70.8816 247.369L64.604 247.348L61.6945 223.125L70.9598 223.155L70.8816 247.369Z" fill="#FFB6B6"/>
<path d="M49.3741 247.158C49.1776 247.486 49.071 248.549 49.0698 248.932C49.0661 250.108 50.017 251.065 51.1937 251.069L70.6349 251.131C71.4377 251.133 72.0905 250.484 72.0931 249.682L72.0957 248.872C72.0957 248.872 73.0651 246.443 71.0946 243.438C71.0946 243.438 68.6262 245.778 64.9606 242.089L63.8825 240.121L56.0147 245.837L51.6621 246.359C50.7099 246.473 49.8663 246.335 49.3741 247.158Z" fill="#2F2E41"/>
<path d="M96.4425 133.999L88.6259 134.557C88.6259 134.557 62.1637 149.603 59.9303 152.953C57.697 156.303 54.6262 161.048 57.4179 166.073C60.2095 171.098 58.0848 231.941 58.0848 231.941L71.4248 228.923L79.9718 165.265L97.8384 162.753C97.8384 162.753 103.98 176.003 101.747 186.965C99.5133 197.927 98.3967 204.627 98.3967 204.627L95.605 269.393L106.492 269.114L116.263 209.094L133.013 161.636L111.238 135.953L96.4425 133.999Z" fill="#2F2E41"/>
<path d="M134.967 65.3245L118.776 66.9994L117.101 72.5827L101.467 80.9577L106.492 116.132L102.584 122.274L104.259 128.416C104.259 128.416 99.7924 128.974 100.351 132.324L90.3008 133.999C90.3008 133.999 103.63 136.72 106.457 150.155C109.284 163.59 132.734 165.265 132.734 165.265L151.159 107.757L152.834 73.6994L139.992 70.3494L134.967 65.3245Z" fill="#E6E6E6"/>
<path d="M126.434 63.2057C133.385 63.2057 139.021 57.5704 139.021 50.6188C139.021 43.6672 133.385 38.0319 126.434 38.0319C119.482 38.0319 113.847 43.6672 113.847 50.6188C113.847 57.5704 119.482 63.2057 126.434 63.2057Z" fill="#FFB6B6"/>
<path d="M119.892 61.9743C119.892 61.9743 108.726 61.416 109.843 52.4828C107.079 42.9698 109.525 36.7932 118.217 34.6163C118.217 34.6163 120.451 34.0579 121.009 34.0579C128.353 34.0579 132.176 36.2912 132.176 36.2912C132.176 36.2912 131.617 34.0799 132.176 34.6272C132.734 35.1746 133.292 36.2912 133.292 36.2912C133.292 36.2912 138.876 39.0829 138.876 44.6662C138.876 50.2494 138.876 48.0161 138.876 48.0161C138.876 48.0161 137.759 48.0161 136.642 44.6662C135.526 41.3162 128.296 43.5495 128.296 43.5495L128.826 44.6662L127.151 44.1078L125.476 45.7828L124.359 45.2245C124.359 45.2245 119.892 45.2245 120.451 45.2245C121.009 45.2245 120.62 49.0188 120.62 49.0188L116.542 53.5994L121.009 61.9743H119.892Z" fill="#2F2E41"/>
<path d="M60.4 128.613C57.2213 130.348 55.5393 133.394 56.6434 135.417C57.7474 137.44 61.2192 137.673 64.398 135.939C65.7894 135.179 66.894 134.168 67.6037 133.102L80.9808 125.582L77.3181 119.38L64.5197 127.451C63.2391 127.472 61.7915 127.854 60.4 128.613Z" fill="#FFB6B6"/>
<path d="M105.512 81.218C105.512 81.218 100.268 79.2215 98.4612 81.6248C96.6545 84.0281 84.7192 113.19 84.7192 113.19L67.2078 122.335L72.1322 130.911L94.6815 123.403L109.559 96.1939L105.512 81.218Z" fill="#E6E6E6"/>
<path d="M270.873 176.989V236.172C270.873 241.405 266.615 245.663 261.381 245.663H115.099C109.865 245.663 105.607 241.405 105.607 236.172V176.989C105.607 171.755 109.865 167.497 115.099 167.497H261.381C266.615 167.497 270.873 171.755 270.873 176.989Z" fill="white"/>
<path d="M270.873 176.989V236.172C270.873 241.405 266.615 245.663 261.381 245.663H115.099C109.865 245.663 105.607 241.405 105.607 236.172V176.989C105.607 171.755 109.865 167.497 115.099 167.497H261.381C266.615 167.497 270.873 171.755 270.873 176.989ZM261.381 244.546C266.006 244.546 269.756 240.797 269.756 236.172V206.334C269.756 185.502 252.868 168.614 232.036 168.614H115.099C110.474 168.614 106.724 172.363 106.724 176.989V236.172C106.724 240.797 110.474 244.546 115.099 244.546H261.381Z" fill="#3F3D56"/>
<path d="M171.273 203.253H152.166C151.685 203.253 151.293 203.645 151.293 204.127C151.293 204.609 151.685 205.001 152.166 205.001H171.273C171.754 205.001 172.146 204.609 172.146 204.127C172.146 203.645 171.754 203.253 171.273 203.253Z" fill="#EB4335"/>
<path d="M200.306 203.253H181.2C180.718 203.253 180.326 203.645 180.326 204.127C180.326 204.609 180.718 205.001 181.2 205.001H200.306C200.788 205.001 201.179 204.609 201.179 204.127C201.179 203.645 200.788 203.253 200.306 203.253Z" fill="#EB4335"/>
<path d="M171.273 212.804H152.166C151.685 212.804 151.293 213.196 151.293 213.678C151.293 214.159 151.685 214.551 152.166 214.551H171.273C171.754 214.551 172.146 214.159 172.146 213.678C172.146 213.196 171.754 212.804 171.273 212.804Z" fill="#EB4335"/>
<path d="M200.306 212.804H181.2C180.718 212.804 180.326 213.196 180.326 213.678C180.326 214.159 180.718 214.551 181.2 214.551H200.306C200.788 214.551 201.179 214.159 201.179 213.678C201.179 213.196 200.788 212.804 200.306 212.804Z" fill="#EB4335"/>
<path d="M230.212 213.678C230.212 213.196 229.821 212.804 229.339 212.804H210.233C209.751 212.804 209.359 213.196 209.359 213.678C209.359 214.159 209.751 214.551 210.233 214.551H229.339C229.821 214.551 230.212 214.159 230.212 213.678Z" fill="#EB4335"/>
<path d="M160.106 195.627C160.588 195.627 160.98 195.235 160.98 194.754C160.98 194.272 160.588 193.88 160.106 193.88H141C140.518 193.88 140.126 194.272 140.126 194.754C140.126 195.235 140.518 195.627 141 195.627H160.106Z" fill="#EB4335"/>
<path d="M216.374 195.272H235.48C235.962 195.272 236.354 194.88 236.354 194.398C236.354 193.917 235.962 193.525 235.48 193.525H216.374C215.892 193.525 215.5 193.917 215.5 194.398C215.5 194.88 215.892 195.272 216.374 195.272Z" fill="#EB4335"/>
<path d="M168.155 195.456H207.767C208.248 195.456 208.64 195.064 208.64 194.582C208.64 194.1 208.248 193.709 207.767 193.709H168.155C167.673 193.709 167.281 194.1 167.281 194.582C167.281 195.064 167.673 195.456 168.155 195.456Z" fill="#EB4335"/>
<path d="M183.74 221.482H164.634C164.152 221.482 163.76 221.873 163.76 222.355C163.76 222.837 164.152 223.229 164.634 223.229H183.74C184.222 223.229 184.614 222.837 184.614 222.355C184.614 221.873 184.222 221.482 183.74 221.482Z" fill="#EB4335"/>
<path d="M245.447 176.543V235.725C245.447 240.959 241.19 245.217 235.956 245.217H176.773C171.539 245.217 167.281 240.959 167.281 235.725V176.543C167.281 171.309 171.539 167.051 176.773 167.051H235.956C241.19 167.051 245.447 171.309 245.447 176.543Z" fill="white"/>
<path d="M245.447 176.543V235.725C245.447 240.959 241.19 245.217 235.956 245.217H176.773C171.539 245.217 167.281 240.959 167.281 235.725V176.543C167.281 171.309 171.539 167.051 176.773 167.051H235.956C241.19 167.051 245.447 171.309 245.447 176.543ZM232.284 244.1C238.937 244.1 244.331 238.707 244.331 232.054V205.888C244.331 185.055 227.443 168.168 206.611 168.168H176.773C172.148 168.168 168.398 171.917 168.398 176.543V227.468C168.398 236.654 175.845 244.1 185.03 244.1L232.284 244.1Z" fill="#3F3D56"/>
<path d="M214.243 191.222H195.136C194.655 191.222 194.263 190.83 194.263 190.348C194.263 189.867 194.655 189.475 195.136 189.475H214.243C214.724 189.475 215.116 189.867 215.116 190.348C215.116 190.83 214.724 191.222 214.243 191.222Z" fill="#EB4335"/>
<path d="M214.243 209.85H195.136C194.655 209.85 194.263 209.458 194.263 208.976C194.263 208.495 194.655 208.103 195.136 208.103H214.243C214.724 208.103 215.116 208.495 215.116 208.976C215.116 209.458 214.724 209.85 214.243 209.85Z" fill="#EB4335"/>
<path d="M204.751 235.533H185.644C185.163 235.533 184.771 235.141 184.771 234.659C184.771 234.178 185.163 233.786 185.644 233.786H204.751C205.232 233.786 205.624 234.178 205.624 234.659C205.624 235.141 205.232 235.533 204.751 235.533Z" fill="#EB4335"/>
<path d="M224.495 200.542H184.884C184.402 200.542 184.01 200.15 184.01 199.668C184.01 199.187 184.402 198.795 184.884 198.795H224.495C224.977 198.795 225.369 199.187 225.369 199.668C225.369 200.15 224.977 200.542 224.495 200.542Z" fill="#EB4335"/>
<path d="M234.312 143.748C234.312 125.286 218.707 115.129 200.883 110.319C178.03 104.152 161.293 116.631 167.454 143.748C168.85 149.894 172.19 157.072 176.324 163.211H209.128C220.085 156.077 234.312 158.078 234.312 143.748Z" fill="#EB4335"/>
<path d="M200.392 178.649C202.258 175.092 204.624 172.525 207.231 170.572H176.506C184.414 181.868 194.901 189.118 200.392 178.649Z" fill="#EB4335"/>
<path d="M196.847 123.984C198.819 123.984 200.418 125.583 200.418 127.555V134.698H193.275V127.555C193.275 125.583 194.874 123.984 196.847 123.984ZM202.204 134.698V127.555C202.204 124.596 199.805 122.198 196.847 122.198C193.888 122.198 191.489 124.596 191.489 127.555V134.698C189.517 134.698 187.918 136.297 187.918 138.27V147.198C187.918 149.171 189.517 150.77 191.489 150.77H202.204C204.176 150.77 205.775 149.171 205.775 147.198V138.27C205.775 136.297 204.176 134.698 202.204 134.698ZM191.489 136.484H202.204C203.19 136.484 203.99 137.283 203.99 138.27V147.198C203.99 148.185 203.19 148.984 202.204 148.984H191.489C190.503 148.984 189.704 148.185 189.704 147.198V138.27C189.704 137.283 190.503 136.484 191.489 136.484Z" fill="white"/>
<path d="M145.808 165.569C145.377 169.164 146.883 172.301 149.171 172.575C151.459 172.849 153.663 170.157 154.094 166.561C154.282 164.987 154.1 163.501 153.643 162.304L155.276 147.046L148.1 146.432L147.251 161.539C146.524 162.594 145.996 163.995 145.808 165.569Z" fill="#FFB6B6"/>
<path d="M147.529 74.5368C147.529 74.5368 155.346 72.3035 157.021 75.6535C158.696 79.0034 162.604 123.111 162.604 123.111L155.067 158.319L146.413 156.053L150.879 120.32L144.738 93.52L147.529 74.5368Z" fill="#E6E6E6"/>
<path d="M32.6622 181.646C50.701 181.646 65.3244 167.023 65.3244 148.984C65.3244 130.945 50.701 116.322 32.6622 116.322C14.6234 116.322 0 130.945 0 148.984C0 167.023 14.6234 181.646 32.6622 181.646Z" fill="#EB4335"/>
<path d="M32.6622 134.362C34.9695 134.362 36.8399 136.232 36.8399 138.54V146.895H28.4845V138.54C28.4845 136.232 30.3549 134.362 32.6622 134.362ZM38.9288 146.895V138.54C38.9288 135.079 36.1232 132.273 32.6622 132.273C29.2013 132.273 26.3956 135.079 26.3956 138.54V146.895C24.0883 146.895 22.2179 148.766 22.2179 151.073V161.517C22.2179 163.825 24.0883 165.695 26.3956 165.695H38.9288C41.2361 165.695 43.1065 163.824 43.1065 161.517V151.073C43.1065 148.766 41.2361 146.895 38.9288 146.895ZM26.3956 148.984H38.9288C40.0824 148.984 41.0177 149.919 41.0177 151.073V161.517C41.0177 162.671 40.0824 163.606 38.9288 163.606H26.3956C25.242 163.606 24.3068 162.671 24.3068 161.517V151.073C24.3068 149.919 25.242 148.984 26.3956 148.984Z" fill="white"/>
</svg>
